# xmcd CD database file
# Copyright (C) 1993-1998 Ti Kan
#
# Track frame offsets:
# 150
# 10990
# 20390
# 33640
# 45927
# 59615
# 69835
# 81530
# 92547
# 103257
# 115605
# 125602
# 134820
# 144670
#
# Disc length: 2069 seconds
#
# Revision: 0
# Processed by: cddbd v1.4b41PL1 Copyright (c) Steve Scherf et al.
# Submitted via: inCDius 1.1b8
#
DISCID=c408130e
DTITLE=Hank Locklin - Please Help Me, I'm Falling
DYEAR=1900
DGENRE=
TTITLE0=Please Help Me, I'm Falling
TTITLE1=My Old Home Town
TTITLE2=(I'm So Tired Of) Goin' Home All By Myself
TTITLE3=It's A Little More Like Heaven
TTITLE4=Livin' Alone
TTITLE5=Seven Days (The Humming Song)
TTITLE6=Send Me The Pillow You Dream On
TTITLE7=Blues In Advance
TTITLE8=Why Don't You Haul Off And Love Me
TTITLE9=When The Band Plays The Blues
TTITLE10=Hiding In My Heart
TTITLE11=Foreign Car
TTITLE12=Geisha Girl
TTITLE13=One Has My Name (The Other Has My Heart)
EXTD=
EXTT0=
EXTT1=
EXTT2=
EXTT3=
EXTT4=
EXTT5=
EXTT6=
EXTT7=
EXTT8=
EXTT9=
EXTT10=
EXTT11=
EXTT12=
EXTT13=
PLAYORDER=
